<svg xmlns="http://www.w3.org/2000/svg" viewBox="0 0 800 480" role="img" aria-label="Developer workspace illustration">
  <defs>
    <linearGradient id="bg" x1="0" y1="0" x2="1" y2="1">
      <stop offset="0%" stop-color="#0f172a" />
      <stop offset="100%" stop-color="#1e293b" />
    </linearGradient>
    <linearGradient id="screen" x1="0" y1="0" x2="1" y2="1">
      <stop offset="0%" stop-color="#0ea5e9" />
      <stop offset="100%" stop-color="#6366f1" />
    </linearGradient>
  </defs>
  <rect width="800" height="480" fill="url(#bg)" rx="24" />
  <rect x="70" y="65" width="470" height="255" rx="16" fill="#0b1220" stroke="#334155" stroke-width="7"/>
  <rect x="96" y="92" width="418" height="180" rx="12" fill="url(#screen)" opacity="0.95"/>
  <rect x="270" y="320" width="70" height="46" rx="7" fill="#334155"/>
  <rect x="190" y="370" width="230" height="18" rx="9" fill="#475569"/>
  <rect x="560" y="65" width="170" height="255" rx="16" fill="#111827" stroke="#334155" stroke-width="6"/>
  <circle cx="610" cy="125" r="16" fill="#22c55e"/>
  <circle cx="648" cy="125" r="16" fill="#f59e0b"/>
  <circle cx="686" cy="125" r="16" fill="#ef4444"/>
  <rect x="585" y="165" width="120" height="12" rx="6" fill="#64748b"/>
  <rect x="585" y="191" width="90" height="12" rx="6" fill="#475569"/>
  <rect x="585" y="217" width="110" height="12" rx="6" fill="#64748b"/>
  <rect x="585" y="243" width="100" height="12" rx="6" fill="#475569"/>
</svg>
