<svg xmlns="http://www.w3.org/2000/svg" viewBox="0 0 800 1000" role="img" aria-label="Developer workspace illustration">
  <defs>
    <linearGradient id="bg" x1="0" y1="0" x2="1" y2="1">
      <stop offset="0%" stop-color="#0f172a" />
      <stop offset="100%" stop-color="#1e293b" />
    </linearGradient>
    <linearGradient id="screen" x1="0" y1="0" x2="1" y2="1">
      <stop offset="0%" stop-color="#0ea5e9" />
      <stop offset="100%" stop-color="#6366f1" />
    </linearGradient>
  </defs>
  <rect width="800" height="1000" fill="url(#bg)" rx="24" />
  <rect x="120" y="180" width="560" height="360" rx="20" fill="#0b1220" stroke="#334155" stroke-width="8"/>
  <rect x="150" y="215" width="500" height="270" rx="14" fill="url(#screen)" opacity="0.95"/>
  <rect x="360" y="540" width="80" height="80" rx="8" fill="#334155"/>
  <rect x="250" y="620" width="300" height="26" rx="13" fill="#475569"/>
  <rect x="90" y="700" width="620" height="220" rx="18" fill="#111827" stroke="#334155" stroke-width="6"/>
  <circle cx="170" cy="810" r="30" fill="#22c55e"/>
  <circle cx="255" cy="810" r="30" fill="#f59e0b"/>
  <circle cx="340" cy="810" r="30" fill="#ef4444"/>
  <rect x="405" y="780" width="255" height="18" rx="9" fill="#64748b"/>
  <rect x="405" y="818" width="200" height="18" rx="9" fill="#475569"/>
  <rect x="405" y="856" width="230" height="18" rx="9" fill="#64748b"/>
</svg>
